<?xml version="1.0" encoding="UTF-8" standalone="no"?>
<!-- Created with Inkscape (http://www.inkscape.org/) -->

<svg
   version="1.1"
   id="svg1"
   width="2813.0801"
   height="1491.3066"
   viewBox="0 0 2813.0801 1491.3066"
   sodipodi:docname="Kaligrafie white.svg"
   inkscape:version="1.4 (e7c3feb1, 2024-10-09)"
   xmlns:inkscape="http://www.inkscape.org/namespaces/inkscape"
   xmlns:sodipodi="http://sodipodi.sourceforge.net/DTD/sodipodi-0.dtd"
   xmlns="http://www.w3.org/2000/svg"
   xmlns:svg="http://www.w3.org/2000/svg">
  <defs
     id="defs1">
    <clipPath
       clipPathUnits="userSpaceOnUse"
       id="clipPath2">
      <path
         d="M 0,1118.484 H 2109.811 V 0 H 0 Z"
         transform="translate(-436.68441,-900.43123)"
         id="path2" />
    </clipPath>
    <clipPath
       clipPathUnits="userSpaceOnUse"
       id="clipPath4">
      <path
         d="M 0,1118.484 H 2109.811 V 0 H 0 Z"
         transform="translate(-1617.3783,-636.75562)"
         id="path4" />
    </clipPath>
    <clipPath
       clipPathUnits="userSpaceOnUse"
       id="clipPath6">
      <path
         d="M 0,1118.484 H 2109.811 V 0 H 0 Z"
         transform="translate(-1565.4828,-234.16071)"
         id="path6" />
    </clipPath>
    <clipPath
       clipPathUnits="userSpaceOnUse"
       id="clipPath8">
      <path
         d="M 0,1118.484 H 2109.811 V 0 H 0 Z"
         transform="translate(-623.49632,-465.72141)"
         id="path8" />
    </clipPath>
    <clipPath
       clipPathUnits="userSpaceOnUse"
       id="clipPath10">
      <path
         d="M 0,1118.484 H 2109.811 V 0 H 0 Z"
         transform="translate(-1933.4847,-283.74523)"
         id="path10" />
    </clipPath>
    <clipPath
       clipPathUnits="userSpaceOnUse"
       id="clipPath12">
      <path
         d="M 0,1118.484 H 2109.811 V 0 H 0 Z"
         transform="translate(-1828.7673,-197.93473)"
         id="path12" />
    </clipPath>
    <clipPath
       clipPathUnits="userSpaceOnUse"
       id="clipPath14">
      <path
         d="M 0,1118.484 H 2109.811 V 0 H 0 Z"
         transform="translate(-1962.573,-161.3258)"
         id="path14" />
    </clipPath>
    <clipPath
       clipPathUnits="userSpaceOnUse"
       id="clipPath16">
      <path
         d="M 0,1118.484 H 2109.811 V 0 H 0 Z"
         transform="translate(-1835.9658,-304.27881)"
         id="path16" />
    </clipPath>
    <clipPath
       clipPathUnits="userSpaceOnUse"
       id="clipPath18">
      <path
         d="M 0,1118.484 H 2109.811 V 0 H 0 Z"
         transform="translate(-1904.2848,-323.53783)"
         id="path18" />
    </clipPath>
    <clipPath
       clipPathUnits="userSpaceOnUse"
       id="clipPath20">
      <path
         d="M 0,1118.484 H 2109.811 V 0 H 0 Z"
         transform="translate(-1975.0755,-331.68148)"
         id="path20" />
    </clipPath>
    <clipPath
       clipPathUnits="userSpaceOnUse"
       id="clipPath22">
      <path
         d="M 0,1118.484 H 2109.811 V 0 H 0 Z"
         transform="translate(-1959.8047,-217.50703)"
         id="path22" />
    </clipPath>
    <clipPath
       clipPathUnits="userSpaceOnUse"
       id="clipPath24">
      <path
         d="M 0,1118.484 H 2109.811 V 0 H 0 Z"
         transform="translate(-1860.4188,-329.80348)"
         id="path24" />
    </clipPath>
    <clipPath
       clipPathUnits="userSpaceOnUse"
       id="clipPath26">
      <path
         d="M 0,1118.484 H 2109.811 V 0 H 0 Z"
         transform="translate(-1617.3783,-636.75562)"
         id="path26" />
    </clipPath>
    <clipPath
       clipPathUnits="userSpaceOnUse"
       id="clipPath28">
      <path
         d="M 0,1118.484 H 2109.811 V 0 H 0 Z"
         transform="translate(-1829.0874,-197.59213)"
         id="path28" />
    </clipPath>
    <clipPath
       clipPathUnits="userSpaceOnUse"
       id="clipPath30">
      <path
         d="M 0,1118.484 H 2109.811 V 0 H 0 Z"
         transform="translate(-1970.3904,-268.23433)"
         id="path30" />
    </clipPath>
    <clipPath
       clipPathUnits="userSpaceOnUse"
       id="clipPath32">
      <path
         d="M 0,1118.484 H 2109.811 V 0 H 0 Z"
         transform="translate(-1621.9362,-641.48461)"
         id="path32" />
    </clipPath>
    <clipPath
       clipPathUnits="userSpaceOnUse"
       id="clipPath34">
      <path
         d="M 0,1118.484 H 2109.811 V 0 H 0 Z"
         transform="translate(-1929.1032,-320.42848)"
         id="path34" />
    </clipPath>
    <clipPath
       clipPathUnits="userSpaceOnUse"
       id="clipPath36">
      <path
         d="M 0,1118.484 H 2109.811 V 0 H 0 Z"
         transform="translate(-1556.7441,-222.71781)"
         id="path36" />
    </clipPath>
    <clipPath
       clipPathUnits="userSpaceOnUse"
       id="clipPath38">
      <path
         d="M 0,1118.484 H 2109.811 V 0 H 0 Z"
         transform="translate(-1546.063,-216.30141)"
         id="path38" />
    </clipPath>
    <clipPath
       clipPathUnits="userSpaceOnUse"
       id="clipPath40">
      <path
         d="M 0,1118.484 H 2109.811 V 0 H 0 Z"
         transform="translate(-1567.2211,-232.40908)"
         id="path40" />
    </clipPath>
    <clipPath
       clipPathUnits="userSpaceOnUse"
       id="clipPath42">
      <path
         d="M 0,1118.484 H 2109.811 V 0 H 0 Z"
         transform="translate(-1556.0058,-223.45933)"
         id="path42" />
    </clipPath>
    <clipPath
       clipPathUnits="userSpaceOnUse"
       id="clipPath44">
      <path
         d="M 0,1118.484 H 2109.811 V 0 H 0 Z"
         transform="translate(-1616.9226,-636.33361)"
         id="path44" />
    </clipPath>
    <clipPath
       clipPathUnits="userSpaceOnUse"
       id="clipPath46">
      <path
         d="M 0,1118.484 H 2109.811 V 0 H 0 Z"
         transform="translate(-1632.0436,-647.43072)"
         id="path46" />
    </clipPath>
    <clipPath
       clipPathUnits="userSpaceOnUse"
       id="clipPath48">
      <path
         d="M 0,1118.484 H 2109.811 V 0 H 0 Z"
         transform="translate(-622.59341,-464.81041)"
         id="path48" />
    </clipPath>
    <clipPath
       clipPathUnits="userSpaceOnUse"
       id="clipPath50">
      <path
         d="M 0,1118.484 H 2109.811 V 0 H 0 Z"
         transform="translate(-1905.0472,-324.31453)"
         id="path50" />
    </clipPath>
  </defs>
  <sodipodi:namedview
     id="namedview1"
     pagecolor="#ffffff"
     bordercolor="#000000"
     borderopacity="0.25"
     inkscape:showpageshadow="2"
     inkscape:pageopacity="0.0"
     inkscape:pagecheckerboard="0"
     inkscape:deskcolor="#d1d1d1"
     inkscape:zoom="0.37538925"
     inkscape:cx="1405.2081"
     inkscape:cy="744.56049"
     inkscape:window-width="2240"
     inkscape:window-height="1260"
     inkscape:window-x="0"
     inkscape:window-y="0"
     inkscape:window-maximized="0"
     inkscape:current-layer="layer-MC0">
    <inkscape:page
       x="0"
       y="0"
       inkscape:label="1"
       id="page1"
       width="2813.0801"
       height="1491.3066"
       margin="130.03481 169.54666 130.02667 169.54401"
       bleed="0" />
  </sodipodi:namedview>
  <g
     id="layer-MC0"
     inkscape:groupmode="layer"
     inkscape:label="Vrstva 1">
    <path
       id="path1"
       d="M 0,0 C 3.852,-2.435 7.703,-4.87 11.397,-7.206 20.941,1.618 10.094,7.336 9.792,14.266 h 20.644 c -3.835,5.194 -6.633,8.984 -9.43,12.774 -0.751,5.76 -1.502,11.521 -2.253,17.281 2.056,2.471 4.112,4.943 6.169,7.414 19.121,-5.885 44.444,-25.357 56.762,-41.234 8.465,-10.911 19.093,-20.123 28.49,-30.338 15.036,-16.342 29.707,-33.022 44.863,-49.249 3.853,-4.125 8.954,-7.084 14.269,-11.185 1.447,-10.723 1.5,-10.855 9.078,-21.006 1.602,2.654 3.019,5.003 4.792,7.941 h 14.856 c 6.772,9.764 13.389,19.304 21.353,30.786 11.816,2.102 25.31,4.502 40.48,7.199 5.73,-8.925 10.802,-16.828 15.711,-24.476 3.054,1.262 7.576,3.129 13.025,5.379 1.765,3.623 3.877,7.959 7.404,15.198 0.614,-6.482 0.959,-10.122 1.425,-15.044 13.79,-10.752 27.9,-23.117 49.523,-24.695 0.308,-4.596 0.631,-9.416 0.965,-14.406 6.578,-6.128 13.331,-12.418 19.807,-18.451 -2.331,-6.96 -4.385,-13.09 -6.563,-19.593 -9.26,-8.581 -17.91,-18.798 -28.621,-25.914 -11.18,-7.428 -19.078,-17.745 -28.846,-26.244 -28.598,-24.883 -55.299,-52.023 -88.743,-71.191 -16.49,-9.451 -31.621,-21.845 -45.673,-34.751 -7.615,-6.993 -12.921,-17.327 -17.084,-27.086 -9.906,-23.221 -18.302,-47.082 -27.79,-70.49 -2.436,-6.009 -6.953,-11.138 -10.013,-16.937 -11.061,-20.96 -21.909,-42.033 -35.066,-67.353 1.118,0.776 -4.452,-0.98 -5.281,-4.027 -3.819,-14.044 -17.504,-20.579 -23.321,-33.28 -14.368,-31.372 -32.344,-60.574 -56.456,-85.721 -7.657,-7.986 -17.107,-12.454 -26.101,-18.159 -8.289,-5.258 -15.296,-13.983 -24.085,-19.597 -19.345,-12.357 -38.176,-24.988 -60.408,-32.982 -16.592,-5.967 -30.376,-19.585 -45.633,-29.452 -32.698,-21.145 -65.589,-41.99 -98.283,-63.141 -6.91,-4.471 -13.292,-9.755 -19.957,-14.61 -7.835,-5.707 -15.223,-12.686 -29.328,-9.897 21.622,17.293 41.547,32.765 60.962,48.852 40.937,33.919 80.834,68.945 114.587,110.363 9.411,11.548 18.535,23.526 29.269,33.754 17.733,16.898 24.301,39.712 32.356,61.026 13.554,35.864 26.799,72.056 35.1,109.691 1.43,6.483 2.041,13.147 3.03,19.724 -9.111,8.919 -19.019,12.613 -31.327,14.175 -15.342,1.947 -29.776,7.738 -42.18,18.697 -10.919,9.647 -24.483,16.23 -36.08,25.199 -9.872,7.633 -19.334,16.085 -27.651,25.363 -9.355,10.436 -17.702,21.877 -25.619,33.474 -10.31,15.104 -19.388,30.197 -11.81,50.475 3.603,9.641 1.919,21.257 2.739,33.616 21.224,-0.032 36.1,-14.554 55.427,-21.12 20.403,-0.936 38.304,9.685 58.228,20.724 h 29.588 c 6.739,-6.17 16.042,-14.689 27.178,-24.885 12,5.013 25.914,10.824 39.884,16.659 0,43.008 2.054,85.903 -0.697,128.487 -1.947,30.135 -10.368,59.855 -16.116,89.719 -0.15,0.779 -2.827,1.072 -4.325,1.592 C -14.02,2.393 -5.38,-2.944 0,0"
       style="fill:#fefefe;fill-opacity:1;fill-rule:nonzero;stroke:none"
       transform="matrix(1.3333333,0,0,-1.3333333,582.24587,290.73173)"
       clip-path="url(#clipPath2)" />
    <path
       id="path3"
       d="m 0,0 c -10.565,-12.683 -20.283,-26.204 -31.855,-37.889 -32.35,-32.663 -63.315,-66.417 -92.566,-101.969 -15.251,-18.536 -34.233,-34.694 -53.767,-48.835 -23.136,-16.749 -40.669,-38.338 -59.619,-58.911 -19.447,-21.112 -33.836,-46.614 -57.234,-64.404 -6.181,-4.699 -9.588,-13.048 -13.738,-18.964 v -27.664 c 12.49,-31.097 23.712,-59.039 34.921,-86.948 -8.291,-6.502 -16.635,-13.044 -25.424,-19.936 -17.819,8.026 -30.848,21.606 -43.677,34.669 -7.123,7.252 -10.046,18.5 -15.549,27.529 -2.734,4.485 -7.018,8.026 -10.971,12.405 -17.678,-11.072 -33.581,-21.033 -51.86,-32.481 h -31.245 c -0.476,4.61 -0.405,9.286 -1.56,13.636 -1.228,4.625 -3.617,8.941 -5.393,13.141 6.172,14.585 12.019,28.869 18.244,42.985 7.002,15.877 -1.985,30.719 -3.445,45.296 6.636,6.054 12.42,11.332 21.656,19.76 7.617,1.584 20.161,4.193 34.45,7.165 0,7.699 0.164,15.863 -0.047,24.017 -0.211,8.193 -0.795,16.377 -1.309,26.363 -31.037,-6.686 -57.766,-24.654 -91.105,-21.072 -10.512,11.885 -15.697,28.142 -23.286,43.801 1.853,4.742 3.89,9.952 6.061,15.507 -3.848,4.977 -7.336,9.489 -12.239,15.831 4.776,7.549 9.959,15.742 16.11,25.466 -4.509,14.395 5.047,28.844 6.351,44.713 2.248,27.364 7.413,55.017 16.709,81.298 10.178,28.773 23.203,56.117 39.998,81.841 15.335,23.487 27.039,49.449 43.318,72.191 35.187,49.156 69.213,99.193 108.867,145.124 18.901,21.893 34.327,46.772 55.912,66.506 6.927,6.333 13.825,12.757 20.119,19.699 3.557,3.923 5.857,8.985 7.683,14.423 12.439,11.384 27.211,11.995 45.184,6.691 -4.774,-6.691 -8.467,-11.868 -12.636,-17.71 4.095,-18.613 8.31,-37.77 12.519,-56.901 -15.536,-6.4 -16.39,-18.796 -17.122,-30.426 -10.469,-7.423 -21.936,-12.909 -29.835,-21.628 -28.644,-31.617 -69.271,-48.469 -97.252,-81.112 -11.009,-12.844 -28.249,-20.138 -40.705,-32.003 -15.041,-14.328 -29.006,-30.072 -41.583,-46.613 -10.987,-14.45 -23.656,-27.009 -35.752,-40.3 -19.289,-21.191 -36.551,-43.937 -43.252,-73.883 -4.54,-20.288 -13.928,-39.773 -16.526,-60.717 -3.133,-25.251 -12.768,-49.488 -11.695,-75.29 0.22,-5.31 2.576,-10.532 4.386,-17.478 6.626,2.03 11.409,2.808 15.552,4.872 38.847,19.351 63.027,53.561 87.132,87.544 4.518,6.369 6.134,15.21 7.7,23.183 5.711,29.073 9.814,58.502 16.571,87.317 3.901,16.635 11.73,32.349 17.79,48.476 7.772,2.227 14.678,4.207 21.924,6.284 9.937,-3.423 20.488,-7.058 34.016,-11.719 9.777,-12.933 23.813,-23.295 45.264,-23.415 10.669,-0.059 21.296,-7.506 34.359,-12.543 4.369,-6.7 10.504,-16.108 17.356,-26.616 2.145,-20.905 -7.997,-39.074 -21.967,-54.468 -14.053,-15.486 -24.08,-33.204 -33.501,-51.3 -5.488,-10.539 -10.105,-20.783 -17.051,-22.578 -22.295,-27.841 -41.381,-51.674 -63.542,-79.348 -1.238,-7.724 -3.285,-20.502 -5.228,-32.626 9.441,-5.609 14.136,-0.169 19.202,3.834 30.025,23.726 60.006,47.506 90.066,71.186 24.155,19.028 49.531,36.681 72.362,57.176 41.538,37.289 86.109,70.473 131.511,102.696 C -9.328,-1.997 -3.865,0.68 0,0"
       style="fill:#ffffff;fill-opacity:1;fill-rule:nonzero;stroke:none"
       transform="matrix(1.3333333,0,0,-1.3333333,2156.5043,642.2992)"
       clip-path="url(#clipPath4)" />
    <path
       id="path5"
       d="m 0,0 c 2.01,4.48 3.503,9.29 6.115,13.386 15.111,23.699 30.487,47.229 45.8,70.859 -13.708,24.707 -38.513,34.158 -59.596,48.391 -1.629,26.246 -20.582,42.495 -37.137,63.074 1.845,13.351 3.928,28.434 5.943,43.015 -11.236,5.236 -20.272,10.283 -21.546,24.337 6.815,1.808 12.841,3.407 19.186,5.089 1.537,4.257 3.136,8.685 5.414,14.992 25.98,-9.975 47.081,-26.664 70.394,-39.03 23.95,-12.704 46.466,-28.111 70.191,-42.693 6.809,2.537 5.684,9.893 8.175,15.697 10.312,24.02 22.466,47.262 32.415,71.42 5.255,12.758 9.099,26.628 10.535,40.316 2.876,27.399 13.757,55.177 -0.672,82.357 -13.596,5.451 -26.002,-1.031 -39.567,-3.736 -3.136,5.944 -6.115,11.588 -9.644,18.275 11.436,15.288 22.27,31.239 14.521,52.38 4.605,4.292 8.615,8.03 13.878,12.936 4.416,-5.238 7.782,-9.23 11.795,-13.991 4.129,1.095 8.666,2.299 14.993,3.978 1.336,-1.249 4.183,-3.91 7.146,-6.678 12.99,-5.565 23.908,0.298 34.726,6.696 0.477,3.915 0.954,7.825 1.75,14.355 6.493,-4.831 10.975,-8.165 15.425,-11.476 h 37.189 c 5.412,9.752 10.355,18.659 15.152,27.301 -1.237,3.759 -2.563,7.793 -4.281,13.018 25.312,-4.78 40.346,-27.729 67.335,-26.54 19.315,-16.7 47.464,-24.2 62.763,-46.952 1.83,-13.449 3.493,-25.677 5.453,-40.079 -4.015,-4.81 -9.265,-11.101 -12.515,-14.995 -4.084,-26.952 -7.586,-51.29 -11.503,-75.56 -3.966,-24.577 -26.153,-39.601 -32.831,-64.11 -5.141,2.23 -9.348,4.055 -13.838,6.002 -5.361,-7.155 -10.646,-14.208 -15.966,-21.309 -2.86,2.496 -4.727,4.126 -6.911,6.032 -9.002,-8.809 -17.626,-18.006 -27.085,-26.245 -6.637,-5.782 -13.883,-11.374 -21.776,-15.107 -23.839,-11.273 -47.364,-22.694 -67.269,-40.613 -5.981,-5.384 -14.14,-8.35 -22.376,-13.036 1.055,-3.771 1.085,-8.297 3.306,-11.066 10.419,-12.989 21.441,-25.495 31.921,-37.789 1.957,-10.145 3.803,-19.712 5.856,-30.347 -13.263,-14.986 -33.073,-9.66 -50.345,-14.65 -2.992,-4.268 -6.168,-8.8 -10.254,-14.63 -12.964,6.608 -25.852,13.177 -40.607,20.697 C 93.048,67.104 75.681,61.932 60.411,46.09 45.677,30.805 28.736,17.628 12.52,3.812 9.522,1.258 5.362,0.068 1.738,-1.752 Z"
       style="fill:#fdfdfd;fill-opacity:1;fill-rule:nonzero;stroke:none"
       transform="matrix(1.3333333,0,0,-1.3333333,2087.3103,1179.0924)"
       clip-path="url(#clipPath6)" />
    <path
       id="path7"
       d="m 0,0 c 5.496,-1.526 11.387,-2.244 16.424,-4.708 38.5,-18.827 77.436,-36.883 112.898,-61.316 14.274,-9.835 28.126,-20.394 43.001,-29.224 32.497,-19.29 65.634,-37.501 98.27,-56.563 9.26,-5.408 18.262,-11.568 26.401,-18.529 21.858,-18.696 43.473,-37.702 64.607,-57.21 10.873,-10.037 20.515,-21.409 29.805,-31.219 1.961,-18.428 1.961,-18.428 -6.848,-34.832 -13.601,-9.415 -27.191,-11.94 -45.333,-6.005 -19.251,6.297 -37.005,13.537 -53.357,25.339 -9.837,7.101 -20.891,12.516 -35.268,20.962 h -6.14 c -10.092,7.469 -18.837,14.633 -28.248,20.774 -26.121,17.044 -48.333,37.994 -65.779,63.893 -18.676,27.725 -40.879,51.823 -69.858,69.186 -3.505,2.1 -6.104,5.724 -9.095,8.671 -21.409,21.102 -42.811,42.212 -64.934,64.029 -2.179,7.56 -4.814,16.7 -7.449,25.841 z"
       style="fill:#fefefe;fill-opacity:1;fill-rule:nonzero;stroke:none"
       transform="matrix(1.3333333,0,0,-1.3333333,831.3284,870.3448)"
       clip-path="url(#clipPath8)" />
    <path
       id="path9"
       d="M 0,0 C -0.072,1.571 -0.144,3.141 -0.215,4.712 -2.918,4.326 -5.62,3.941 -8.323,3.556 -8.312,2.742 -8.302,1.928 -8.292,1.114 -5.528,0.743 -2.764,0.371 0,0 m -45.373,-19.552 c 0.009,1.269 0.019,2.538 0.029,3.807 -4.331,-0.364 -8.662,-0.727 -12.993,-1.091 0.052,-0.905 0.103,-1.811 0.155,-2.716 z m 16.333,-25.87 h -13.262 c 2.977,-11.351 7.719,-21.696 7.866,-32.106 0.158,-11.063 -4.04,-22.189 -6.234,-32.795 -12.717,-4.368 -16.829,5.372 -23.091,11.714 5.342,2.405 10.333,4.652 15.325,6.899 l -0.822,3.916 c -6.52,1.078 -13.04,2.157 -19.56,3.235 0.042,0.956 0.084,1.912 0.126,2.868 6.34,0.554 12.679,1.108 17.057,1.491 v 13.951 c -6.407,0.491 -14.388,1.103 -28.101,2.155 7.549,4.649 10.148,7.175 13.172,7.883 4.011,0.94 8.354,0.459 12.555,0.589 0.799,-1.501 1.599,-3.002 0.193,-0.363 2.605,-1.46 1.125,-0.63 -0.355,0.199 1.184,4.606 2.368,9.212 3.962,15.411 h -23.322 c -0.045,1.219 -0.089,2.438 -0.134,3.657 7.578,0.692 15.157,1.383 28.255,2.578 -9.204,2.876 -13.565,3.886 -17.629,5.602 -4.525,1.912 -8.779,4.466 -13.443,6.894 -2.57,-4.119 -5.32,-8.526 -9.094,-14.575 -5.805,5.377 -10.946,10.139 -14.808,13.715 -8.703,-1.782 -16.377,-3.354 -24.478,-5.013 4.652,-2.657 8.822,-5.039 12.702,-7.255 2.582,1.577 5.267,3.216 9.4,5.74 1.569,-3.872 2.614,-6.451 4.26,-10.51 h -29.916 V 4.322 c 2.923,-9.66 4.165,-13.762 5.713,-18.878 h 61.941 c -13.206,5.636 -23.06,10.029 -17.545,23.598 12.842,0.88 25.502,1.748 39.262,2.692 v -28.723 c 8.474,-0.806 15.599,-1.484 22.656,-2.156 -0.226,5.139 -0.462,10.52 -0.798,18.149 -3.359,0.393 -9.301,1.089 -16.898,1.978 1.716,9.965 -3.898,20.263 8.599,29.331 1.148,-7.491 2.119,-13.826 3.357,-21.909 4.85,2.379 8.299,4.071 11.528,5.655 8.037,-1.655 16.472,-3.392 26.168,-5.389 -1.172,4.921 -1.79,7.516 -2.443,10.257 8.858,1.139 17.642,2.268 27.854,3.582 0.289,-1.773 0.896,-5.499 1.717,-10.534 C 37.188,10.59 32.073,9.303 26.809,7.979 V -0.356 C 21.114,-0.365 15.415,-0.281 9.729,-0.51 9.075,-0.536 8.491,-2.305 7.857,-3.294 c 2.922,-1.433 5.585,-2.739 8.423,-4.131 -3.115,-3.925 -5.935,-7.479 -8.874,-11.182 8.996,-4.138 14.615,-0.501 19.082,6.345 0.003,4.074 0.003,8.147 0.003,12.219 5.859,-0.471 5.241,-4.547 5.643,-8.814 0.221,-2.347 3.094,-4.444 4.772,-6.654 l -0.338,0.337 c 8.236,-19.592 4.368,-39.834 5.394,-65.69 -5.046,11.715 -7.677,17.825 -10.624,24.668 h -59.455 c -0.232,4.27 -0.399,7.335 -0.566,10.4 7.554,0.046 15.108,0.109 22.663,0.134 7.555,0.025 15.133,-0.351 22.658,0.131 6.158,0.394 13.049,-2.127 21.058,3.301 -15.217,3.835 -28.567,-1.219 -46.664,5.697 13.125,0.824 20.39,0.984 27.534,1.998 1.311,0.186 2.132,3.838 4.031,7.562 -7.492,0.811 -13.704,1.483 -19.495,2.11 -2.055,5.579 -3.789,10.286 -5.523,14.993 -6.271,-15.231 -13.21,-27.669 -26.619,-35.552"
       style="fill:#ea6d53;fill-opacity:1;fill-rule:nonzero;stroke:none"
       transform="matrix(1.3333333,0,0,-1.3333333,2577.9796,1112.9797)"
       clip-path="url(#clipPath10)" />
    <path
       id="path11"
       d="m 0,0 v -19.177 c 4.933,1.404 8.911,3 13.032,3.578 4.097,0.575 8.337,0.126 13.9,0.126 5.752,-4.49 12.459,-9.727 23.243,-18.148 -27.495,-2.967 -50.152,-1.278 -75.492,-1.495 0.959,10.459 1.801,19.643 2.807,30.619 -1.051,12.353 -2.286,26.869 -3.595,42.267 11.861,4.823 23.18,0.897 33.405,2.44 3.266,-7.759 5.946,-14.126 8.78,-20.86 3.625,2.417 5.568,3.712 8.629,5.753 0,-3.25 0.858,-6.039 -0.144,-7.722 C 19.401,8.701 11.274,8.968 2.8,10.964 1.334,13.779 -0.113,16.555 -0.964,18.189 -6.957,14.298 -12.915,10.429 -18.16,7.024 -12.843,4.905 -6.262,2.281 0.32,-0.343 Z"
       style="fill:#ea6d53;fill-opacity:1;fill-rule:nonzero;stroke:none"
       transform="matrix(1.3333333,0,0,-1.3333333,2438.3564,1227.3937)"
       clip-path="url(#clipPath12)" />
    <path
       id="path13"
       d="m 0,0 c -4.436,2.282 -7.969,4.099 -11.5,5.91 -16.501,-7.861 -33.658,-3.635 -52.995,-4.895 4.724,12.972 8.49,23.314 12.578,34.542 H 11.191 C 15.616,22.64 10.049,12.42 0,0"
       style="fill:#ea6d53;fill-opacity:1;fill-rule:nonzero;stroke:none"
       transform="matrix(1.3333333,0,0,-1.3333333,2616.764,1276.2056)"
       clip-path="url(#clipPath14)" />
    <path
       id="path15"
       d="m 0,0 c -12.672,-1.046 -21.881,-1.806 -31.688,-2.615 v 19.568 c 10.85,-0.937 21.147,-1.827 33.947,-2.932 1.566,-3.717 4.665,-8.554 5.59,-13.776 2,-11.297 -2.588,-20.834 -11.014,-30.614 -3.935,0.38 -9.785,-0.75 -12.819,1.662 -3.849,3.061 -5.413,8.998 -7.183,12.26 C -17.551,-5.934 -4.711,-16.05 0,0"
       style="fill:#ea6d53;fill-opacity:1;fill-rule:nonzero;stroke:none"
       transform="matrix(1.3333333,0,0,-1.3333333,2447.9543,1085.6016)"
       clip-path="url(#clipPath16)" />
    <path
       id="path17"
       d="m 0,0 h -8.266 c -0.973,-4.783 -1.913,-9.407 -2.879,-14.151 -2.997,1.644 -5.69,3.121 -10.279,5.638 -1.881,-3.714 -3.527,-6.962 -5.533,-10.923 h -21.424 c -2.419,2.715 -4.614,5.179 -7.85,8.812 2.964,3.684 5.891,7.321 8.333,10.357 9.903,0.624 18.765,1.182 27.626,1.741 -0.018,0.674 -0.037,1.348 -0.056,2.022 -6.493,1.478 -12.985,2.955 -21.724,4.944 10.417,5.802 10.417,5.802 42.279,-0.253 C 0.403,5.749 0.583,3.263 0.762,0.777 0.762,0.777 0,0 0,0"
       style="fill:#ea6d53;fill-opacity:1;fill-rule:nonzero;stroke:none"
       transform="matrix(1.3333333,0,0,-1.3333333,2539.0464,1059.9229)"
       clip-path="url(#clipPath18)" />
    <path
       id="path19"
       d="m 0,0 v -15.747 c -2.213,-0.721 -4.594,-2.385 -6.544,-1.98 -9.203,1.91 -18.288,4.387 -27.939,6.792 V 6.191 H -7.288 C -5.999,5.096 -2.935,2.493 0,0"
       style="fill:#ea6d53;fill-opacity:1;fill-rule:nonzero;stroke:none"
       transform="matrix(1.3333333,0,0,-1.3333333,2633.4339,1049.0647)"
       clip-path="url(#clipPath20)" />
    <path
       id="path21"
       d="m 0,0 v -8.529 h -48.824 c -0.867,0.995 -3.382,3.882 -7.431,8.529 z"
       style="fill:#ea6d53;fill-opacity:1;fill-rule:nonzero;stroke:none"
       transform="matrix(1.3333333,0,0,-1.3333333,2613.0729,1201.2973)"
       clip-path="url(#clipPath22)" />
    <path
       id="path23"
       d="m 0,0 h -54.288 c 4.479,4.579 6.539,8.567 8.816,8.695 11.541,0.652 23.138,0.3 38.07,0.3 C -6.439,7.825 -3.882,4.717 0,0"
       style="fill:#ea6d53;fill-opacity:1;fill-rule:nonzero;stroke:none"
       transform="matrix(1.3333333,0,0,-1.3333333,2480.5584,1051.5687)"
       clip-path="url(#clipPath24)" />
    <path
       id="path25"
       d="m 0,0 c -3.865,0.68 -9.328,-1.997 -10.243,4.878 2.683,6.949 6.824,11.574 15.16,9.519 -0.12,-3.223 -0.239,-6.446 -0.359,-9.668 0,0 0.423,0.468 0.423,0.468 C 3.169,3.324 1.357,1.451 -0.456,-0.422 -0.456,-0.422 0,0 0,0"
       style="fill:#ffffff;fill-opacity:1;fill-rule:nonzero;stroke:none"
       transform="matrix(1.3333333,0,0,-1.3333333,2156.5043,642.2992)"
       clip-path="url(#clipPath26)" />
    <path
       id="path27"
       d="m 0,0 c 4.121,10.973 12.139,3.433 18.931,4.661 0.473,-2.863 0.834,-5.048 1.176,-7.114 -1.773,-0.873 -3.37,-2.385 -4.51,-2.097 -5.374,1.361 -10.623,3.215 -15.917,4.893 z"
       style="fill:#ea6d53;fill-opacity:1;fill-rule:nonzero;stroke:none"
       transform="matrix(1.3333333,0,0,-1.3333333,2438.7831,1227.8505)"
       clip-path="url(#clipPath28)" />
    <path
       id="path29"
       d="M 0,0 V 19.289 C 5.208,11.24 7.777,7.269 12.262,0.337 h -12.6 z"
       style="fill:#ea6d53;fill-opacity:1;fill-rule:nonzero;stroke:none"
       transform="matrix(1.3333333,0,0,-1.3333333,2627.1872,1133.6609)"
       clip-path="url(#clipPath30)" />
    <path
       id="path31"
       d="M 0,0 C 0.12,3.223 0.239,6.445 0.359,9.668 3.781,9.873 7.202,10.079 10.624,10.285 9.998,8.893 9.826,7.446 10.107,5.946 6.738,3.964 3.369,1.982 0,0"
       style="fill:#ffffff;fill-opacity:1;fill-rule:nonzero;stroke:none"
       transform="matrix(1.3333333,0,0,-1.3333333,2162.5816,635.99387)"
       clip-path="url(#clipPath32)" />
    <path
       id="path33"
       d="m 0,0 c -4.1,-0.661 -8.201,-1.322 -12.301,-1.982 -0.142,1.252 -0.283,2.505 -0.425,3.758 4.089,0.428 8.178,0.857 12.267,1.285 C -0.306,2.041 -0.153,1.02 0,0"
       style="fill:#ea6d53;fill-opacity:1;fill-rule:nonzero;stroke:none"
       transform="matrix(1.3333333,0,0,-1.3333333,2572.1375,1064.0687)"
       clip-path="url(#clipPath34)" />
    <path
       id="path35"
       d="m 0,0 c -3.56,-2.139 -7.121,-4.278 -10.681,-6.416 0,0 0.354,1.548 0.354,1.548 l -1.587,0.063 c 3.725,1.849 7.451,3.698 11.176,5.547 C -0.738,0.742 0,0 0,0"
       style="fill:#fefefe;fill-opacity:1;fill-rule:nonzero;stroke:none"
       transform="matrix(1.3333333,0,0,-1.3333333,2075.6587,1194.3496)"
       clip-path="url(#clipPath36)" />
    <path
       id="path37"
       d="m 0,0 c -2.723,-1.117 -5.446,-2.235 -8.169,-3.352 -0.349,1.161 -0.697,2.321 -1.046,3.482 2.661,0.494 5.321,0.988 7.982,1.482 L 0.354,1.548 Z"
       style="fill:#fefefe;fill-opacity:1;fill-rule:nonzero;stroke:none"
       transform="matrix(1.3333333,0,0,-1.3333333,2061.4173,1202.9048)"
       clip-path="url(#clipPath38)" />
    <path
       id="path39"
       d="m 0,0 c -1.671,-1.692 -3.342,-3.384 -5.013,-5.075 l -1.764,1.767 c 1.679,1.687 3.359,3.373 5.039,5.06 z"
       style="fill:#fefefe;fill-opacity:1;fill-rule:nonzero;stroke:none"
       transform="matrix(1.3333333,0,0,-1.3333333,2089.6281,1181.4279)"
       clip-path="url(#clipPath40)" />
    <path
       id="path41"
       d="m 0,0 c 1.479,1.881 2.959,3.761 4.438,5.642 0,0 1.764,-1.768 1.764,-1.768 C 4.381,2.336 2.559,0.797 0.738,-0.742 0.738,-0.742 0,0 0,0"
       style="fill:#fefefe;fill-opacity:1;fill-rule:nonzero;stroke:none"
       transform="matrix(1.3333333,0,0,-1.3333333,2074.6743,1193.3609)"
       clip-path="url(#clipPath42)" />
    <path
       id="path43"
       d="M 0,0 C 1.812,1.873 3.625,3.746 5.437,5.619 3.625,3.746 1.812,1.873 0,0"
       style="fill:#ffffff;fill-opacity:1;fill-rule:nonzero;stroke:none"
       transform="matrix(1.3333333,0,0,-1.3333333,2155.8967,642.86187)"
       clip-path="url(#clipPath44)" />
    <path
       id="path45"
       d="M 0,0 C -0.281,1.5 -0.109,2.946 0.517,4.338 1.79,3.798 3.064,3.257 4.337,2.717 2.891,1.811 1.446,0.906 0,0"
       style="fill:#ffffff;fill-opacity:1;fill-rule:nonzero;stroke:none"
       transform="matrix(1.3333333,0,0,-1.3333333,2176.0581,628.06573)"
       clip-path="url(#clipPath46)" />
    <path
       id="path47"
       d="m 0,0 c -1.585,0.965 -3.17,1.929 -4.755,2.894 0.641,0.728 1.282,1.457 1.923,2.186 1.245,-1.39 2.49,-2.779 3.735,-4.169 z"
       style="fill:#e0e0e0;fill-opacity:1;fill-rule:nonzero;stroke:none"
       transform="matrix(1.3333333,0,0,-1.3333333,830.12453,871.55947)"
       clip-path="url(#clipPath48)" />
    <path
       id="path49"
       d="M 0,0 C 1.385,-1.013 2.77,-2.026 4.155,-3.038 3.567,-3.634 2.978,-4.229 2.39,-4.824 1.339,-3.475 0.288,-2.126 -0.762,-0.777 Z"
       style="fill:#ea6d53;fill-opacity:1;fill-rule:nonzero;stroke:none"
       transform="matrix(1.3333333,0,0,-1.3333333,2540.0629,1058.8873)"
       clip-path="url(#clipPath50)" />
  </g>
</svg>
