<?xml version="1.0" encoding="UTF-8" standalone="no"?>
<svg
   version="1.0"
   width="68pt"
   height="75pt"
   viewBox="0 0 68 75"
   preserveAspectRatio="xMidYMid"
   id="svg2"
   sodipodi:docname="Michelin_Guide_logo.svg.svg"
   xmlns:inkscape="http://www.inkscape.org/namespaces/inkscape"
   xmlns:sodipodi="http://sodipodi.sourceforge.net/DTD/sodipodi-0.dtd"
   xmlns="http://www.w3.org/2000/svg"
   xmlns:svg="http://www.w3.org/2000/svg">
  <defs
     id="defs2" />
  <sodipodi:namedview
     id="namedview2"
     pagecolor="#ffffff"
     bordercolor="#000000"
     borderopacity="0.25"
     inkscape:showpageshadow="2"
     inkscape:pageopacity="0.0"
     inkscape:pagecheckerboard="0"
     inkscape:deskcolor="#d1d1d1"
     inkscape:document-units="pt">
    <inkscape:page
       x="0"
       y="0"
       width="68"
       height="75"
       id="page2"
       margin="0"
       bleed="0" />
  </sodipodi:namedview>
  <g
     transform="matrix(0.1,0,0,-0.1,0,75)"
     fill="#000000"
     stroke="none"
     id="g2"
     style="fill:#aa0000">
    <path
       d="m 385,725 c -30,-29 -31,-51 -9,-162 13,-63 21,-83 33,-83 31,1 184,48 197,62 7,7 16,28 20,45 5,27 1,37 -25,64 -24,23 -38,30 -57,26 -20,-3 -27,1 -34,18 -11,29 -48,55 -78,55 -12,0 -34,-11 -47,-25 z"
       id="path1"
       style="fill:#aa0000" />
    <path
       d="M 256,711 C 236,690 226,668 223,636 217,585 216,585 180,605 116,641 34,607 10,535 -7,485 6,445 50,407 L 88,375 50,342 C 6,305 -7,266 10,215 34,143 116,109 180,145 c 36,21 37,20 43,-32 7,-67 48,-103 117,-103 69,0 110,36 117,103 3,26 7,47 8,47 1,0 19,-7 38,-15 59,-24 95,-19 132,18 61,61 53,150 -16,191 l -31,18 41,37 c 27,23 43,48 48,69 5,32 5,33 -14,22 -11,-7 -24,-22 -29,-33 -15,-33 -55,-56 -122,-70 -68,-14 -85,-30 -37,-35 101,-11 165,-52 165,-108 0,-46 -37,-84 -82,-84 -41,0 -96,36 -129,84 -39,57 -53,42 -24,-27 23,-55 20,-140 -6,-163 -31,-28 -96,-25 -120,5 -23,29 -25,106 -4,158 29,69 15,84 -24,27 -55,-80 -139,-107 -186,-59 -36,36 -34,86 5,119 32,27 87,46 132,46 29,0 48,18 26,24 -7,2 -39,9 -71,16 -102,21 -145,85 -101,148 41,59 110,44 186,-41 50,-54 60,-49 33,16 -24,58 -20,134 10,169 45,53 19,70 -29,19 z"
       id="path2"
       style="fill:#aa0000" />
  </g>
</svg>
