<?xml version="1.0" encoding="UTF-8" standalone="no"?>
<!-- Uploaded to: SVG Repo, www.svgrepo.com, Generator: SVG Repo Mixer Tools -->

<svg
   fill="#000000"
   height="800"
   width="800"
   version="1.1"
   id="Layer_1"
   viewBox="0 0 455.73 455.73"
   xml:space="preserve"
   xmlns="http://www.w3.org/2000/svg"
   xmlns:svg="http://www.w3.org/2000/svg"><defs
   id="defs1"><clipPath
     clipPathUnits="userSpaceOnUse"
     id="clipPath7"><rect
       style="opacity:0;fill:#ff0000;stroke-width:0.569663"
       id="rect8"
       width="353.65366"
       height="349.58875"
       x="50.134819"
       y="52.393139" /></clipPath></defs>
<path
   d="m 227.86,182.55 c -24.98,0 -45.32,20.33 -45.32,45.31 0,24.99 20.34,45.33 45.32,45.33 24.99,0 45.32,-20.34 45.32,-45.33 0,-24.98 -20.33,-45.31 -45.32,-45.31 z m 0,0 c -24.98,0 -45.32,20.33 -45.32,45.31 0,24.99 20.34,45.33 45.32,45.33 24.99,0 45.32,-20.34 45.32,-45.33 0,-24.98 -20.33,-45.31 -45.32,-45.31 z m 75.5,-73.89 H 152.37 c -24.1,0 -43.71,19.61 -43.71,43.71 v 150.99 c 0,24.1 19.61,43.71 43.71,43.71 h 150.99 c 24.1,0 43.71,-19.61 43.71,-43.71 V 152.37 c 0,-24.1 -19.61,-43.71 -43.71,-43.71 z m -75.5,197.69 c -43.27,0 -78.48,-35.21 -78.48,-78.49 0,-43.27 35.21,-78.48 78.48,-78.48 43.28,0 78.49,35.21 78.49,78.48 0,43.28 -35.21,78.49 -78.49,78.49 z m 81.01,-140.74 c -10.24,0 -18.57,-8.33 -18.57,-18.57 0,-10.24 8.33,-18.57 18.57,-18.57 10.24,0 18.57,8.33 18.57,18.57 0,10.24 -8.33,18.57 -18.57,18.57 z m -81.01,16.94 c -24.98,0 -45.32,20.33 -45.32,45.31 0,24.99 20.34,45.33 45.32,45.33 24.99,0 45.32,-20.34 45.32,-45.33 0,-24.98 -20.33,-45.31 -45.32,-45.31 z m 75.5,-73.89 H 152.37 c -24.1,0 -43.71,19.61 -43.71,43.71 v 150.99 c 0,24.1 19.61,43.71 43.71,43.71 h 150.99 c 24.1,0 43.71,-19.61 43.71,-43.71 V 152.37 c 0,-24.1 -19.61,-43.71 -43.71,-43.71 z m -75.5,197.69 c -43.27,0 -78.48,-35.21 -78.48,-78.49 0,-43.27 35.21,-78.48 78.48,-78.48 43.28,0 78.49,35.21 78.49,78.48 0,43.28 -35.21,78.49 -78.49,78.49 z m 81.01,-140.74 c -10.24,0 -18.57,-8.33 -18.57,-18.57 0,-10.24 8.33,-18.57 18.57,-18.57 10.24,0 18.57,8.33 18.57,18.57 0,10.24 -8.33,18.57 -18.57,18.57 z m -81.01,16.94 c -24.98,0 -45.32,20.33 -45.32,45.31 0,24.99 20.34,45.33 45.32,45.33 24.99,0 45.32,-20.34 45.32,-45.33 0,-24.98 -20.33,-45.31 -45.32,-45.31 z M 0,0 V 455.73 H 455.73 V 0 H 12.194955 Z m 380.23,303.36 c 0,42.39 -34.48,76.87 -76.87,76.87 H 152.37 c -42.39,0 -76.87,-34.48 -76.87,-76.87 V 152.37 c 0,-42.39 34.48,-76.87 76.87,-76.87 h 150.99 c 42.39,0 76.87,34.48 76.87,76.87 z M 303.36,108.66 H 152.37 c -24.1,0 -43.71,19.61 -43.71,43.71 v 150.99 c 0,24.1 19.61,43.71 43.71,43.71 h 150.99 c 24.1,0 43.71,-19.61 43.71,-43.71 V 152.37 c 0,-24.1 -19.61,-43.71 -43.71,-43.71 z m -75.5,197.69 c -43.27,0 -78.48,-35.21 -78.48,-78.49 0,-43.27 35.21,-78.48 78.48,-78.48 43.28,0 78.49,35.21 78.49,78.48 0,43.28 -35.21,78.49 -78.49,78.49 z m 81.01,-140.74 c -10.24,0 -18.57,-8.33 -18.57,-18.57 0,-10.24 8.33,-18.57 18.57,-18.57 10.24,0 18.57,8.33 18.57,18.57 0,10.24 -8.33,18.57 -18.57,18.57 z m -81.01,16.94 c -24.98,0 -45.32,20.33 -45.32,45.31 0,24.99 20.34,45.33 45.32,45.33 24.99,0 45.32,-20.34 45.32,-45.33 0,-24.98 -20.33,-45.31 -45.32,-45.31 z m 0,0 c -24.98,0 -45.32,20.33 -45.32,45.31 0,24.99 20.34,45.33 45.32,45.33 24.99,0 45.32,-20.34 45.32,-45.33 0,-24.98 -20.33,-45.31 -45.32,-45.31 z m 0,0 c -24.98,0 -45.32,20.33 -45.32,45.31 0,24.99 20.34,45.33 45.32,45.33 24.99,0 45.32,-20.34 45.32,-45.33 0,-24.98 -20.33,-45.31 -45.32,-45.31 z m 75.5,-73.89 H 152.37 c -24.1,0 -43.71,19.61 -43.71,43.71 v 150.99 c 0,24.1 19.61,43.71 43.71,43.71 h 150.99 c 24.1,0 43.71,-19.61 43.71,-43.71 V 152.37 c 0,-24.1 -19.61,-43.71 -43.71,-43.71 z m -75.5,197.69 c -43.27,0 -78.48,-35.21 -78.48,-78.49 0,-43.27 35.21,-78.48 78.48,-78.48 43.28,0 78.49,35.21 78.49,78.48 0,43.28 -35.21,78.49 -78.49,78.49 z m 81.01,-140.74 c -10.24,0 -18.57,-8.33 -18.57,-18.57 0,-10.24 8.33,-18.57 18.57,-18.57 10.24,0 18.57,8.33 18.57,18.57 0,10.24 -8.33,18.57 -18.57,18.57 z m -81.01,16.94 c -24.98,0 -45.32,20.33 -45.32,45.31 0,24.99 20.34,45.33 45.32,45.33 24.99,0 45.32,-20.34 45.32,-45.33 0,-24.98 -20.33,-45.31 -45.32,-45.31 z m 0,0 c -24.98,0 -45.32,20.33 -45.32,45.31 0,24.99 20.34,45.33 45.32,45.33 24.99,0 45.32,-20.34 45.32,-45.33 0,-24.98 -20.33,-45.31 -45.32,-45.31 z m 0,0 c -24.98,0 -45.32,20.33 -45.32,45.31 0,24.99 20.34,45.33 45.32,45.33 24.99,0 45.32,-20.34 45.32,-45.33 0,-24.98 -20.33,-45.31 -45.32,-45.31 z m 75.5,-73.89 H 152.37 c -24.1,0 -43.71,19.61 -43.71,43.71 v 150.99 c 0,24.1 19.61,43.71 43.71,43.71 h 150.99 c 24.1,0 43.71,-19.61 43.71,-43.71 V 152.37 c 0,-24.1 -19.61,-43.71 -43.71,-43.71 z m -75.5,197.69 c -43.27,0 -78.48,-35.21 -78.48,-78.49 0,-43.27 35.21,-78.48 78.48,-78.48 43.28,0 78.49,35.21 78.49,78.48 0,43.28 -35.21,78.49 -78.49,78.49 z m 81.01,-140.74 c -10.24,0 -18.57,-8.33 -18.57,-18.57 0,-10.24 8.33,-18.57 18.57,-18.57 10.24,0 18.57,8.33 18.57,18.57 0,10.24 -8.33,18.57 -18.57,18.57 z m -81.01,16.94 c -24.98,0 -45.32,20.33 -45.32,45.31 0,24.99 20.34,45.33 45.32,45.33 24.99,0 45.32,-20.34 45.32,-45.33 0,-24.98 -20.33,-45.31 -45.32,-45.31 z"
   id="path1"
   clip-path="url(#clipPath7)" />
<rect
   style="opacity:0;fill:#ff0000;stroke-width:0.569663"
   id="rect1"
   width="317.06891"
   height="316.1655"
   x="68.653084"
   y="69.556419" /><rect
   style="opacity:0;fill:#ff0000;stroke-width:0.569663"
   id="rect2"
   width="4.5166502"
   height="12.646621"
   x="182.92433"
   y="-0.90333003" /><rect
   style="opacity:0;fill:#ff0000;stroke-width:0.569663"
   id="rect3"
   width="328.81213"
   height="320.2305"
   x="55.103134"
   y="70.008072" /><rect
   style="opacity:0;fill:#ff0000;stroke-width:0.569663"
   id="rect4"
   width="69.104752"
   height="144.08115"
   x="76.783051"
   y="73.169731" /><rect
   style="opacity:0;fill:#ff0000;stroke-width:0.569663"
   id="rect5"
   width="317.06882"
   height="315.7139"
   x="67.749756"
   y="70.00808" /><ellipse
   style="opacity:0;fill:#ff0000;stroke-width:0.569663"
   id="path8"
   cx="53.522301"
   cy="95.527153"
   rx="42.682343"
   ry="53.522301" /><ellipse
   style="opacity:0;fill:#ff0000;stroke-width:0.569663"
   id="path9"
   cx="78.363876"
   cy="58.49062"
   rx="1.1291625"
   ry="0.67749757" /><path
   style="opacity:0;fill:#ff0000;stroke-width:0.569663"
   id="path10"
   d="m 88.526344,59.619785 a 16.937439,9.4849653 0 0 1 -1.61133,4.037722 L 71.588905,59.619785 Z" /><path
   style="opacity:0;fill:#ff0000;stroke-width:0.569663"
   id="path11"
   d="m 123.30455,98.462975 a 27.777399,41.553185 0 0 1 -2.64258,17.689065 L 95.527153,98.462975 Z" /><path
   style="opacity:0;fill:#ff0000;stroke-width:0.569663"
   id="path12"
   d="m 92.591304,82.907347 a 11.517458,13.775784 0 0 1 -3.570186,9.943993 l -7.94725,-9.970809 z" /><path
   style="opacity:0;fill:#ff0000;stroke-width:0.569663"
   id="path13"
   d="M 253.62342,78.538682 A 154.46944,134.37035 0 0 1 385.49233,195.3609 154.46944,134.37035 0 0 1 289.71014,336.30001 154.46944,134.37035 0 0 1 108.4799,292.11073 l 123.67591,-80.50567 z" /></svg>
